<?xml version="1.0" encoding="utf-8"?>
<!-- Generator: Adobe Illustrator 24.0.3, SVG Export Plug-In . SVG Version: 6.00 Build 0)  -->
<svg version="1.1" id="Layer_1" xmlns="http://www.w3.org/2000/svg" xmlns:xlink="http://www.w3.org/1999/xlink" x="0px" y="0px"
	 viewBox="0 0 1000 1000" style="enable-background:new 0 0 1000 1000;" xml:space="preserve">
<title>Artboard 1</title>
<g id="Layer_2_2_">
	<g id="Layer_1-2_1_">
		<path d="M706,202.6v-38.9H312.4c-82.5,0.1-149.3,66.9-149.4,149.4v393.6h38.9V313.1c0.1-61,49.5-110.5,110.5-110.5H706z"/>
		<path d="M748.4,262.4H351.7c-49,0-88.6,39.7-88.6,88.7v396.7c0,48.9,39.7,88.6,88.6,88.6h396.7c48.9-0.1,88.5-39.7,88.6-88.6V351
			C837,302.1,797.3,262.4,748.4,262.4z M748.4,797.4H351.7c-27.4,0-49.7-22.3-49.7-49.7V351c0-27.5,22.3-49.8,49.7-49.8h396.7
			c27.5,0,49.7,22.3,49.7,49.8v396.7C798.1,775.1,775.9,797.4,748.4,797.4z"/>
	</g>
</g>
</svg>
