<svg id="Layer_1" data-name="Layer 1" xmlns="http://www.w3.org/2000/svg" viewBox="0 0 801.68 800"><title>add-button copy</title><path d="M400.84,135c146.12,0,265,118.88,265,265S547,665,400.84,665s-265-118.88-265-265,118.88-265,265-265m0-42.06C231.25,92.93,93.77,230.41,93.77,400S231.25,707.07,400.84,707.07,707.91,569.59,707.91,400,570.43,92.93,400.84,92.93Zm-.78,217.46c12.06,0,22.86-4.3,30.42-12.12a38.36,38.36,0,0,0,10.6-28.07c-.1-23.36-16.89-40.3-40-40.3s-40.51,17.41-40.51,40.5C360.58,292.83,377.92,310.39,400.06,310.39Zm-21.65,42.94H366.25V577.11h69.67V353.33H378.41Z"/></svg>